<?xml version="1.0" encoding="UTF-8" standalone="no"?>
<!-- Created with Inkscape (http://www.inkscape.org/) -->

<svg
   xmlns:dc="http://purl.org/dc/elements/1.1/"
   xmlns:cc="http://creativecommons.org/ns#"
   xmlns:rdf="http://www.w3.org/1999/02/22-rdf-syntax-ns#"
   xmlns:svg="http://www.w3.org/2000/svg"
   xmlns="http://www.w3.org/2000/svg"
   xmlns:sodipodi="http://sodipodi.sourceforge.net/DTD/sodipodi-0.dtd"
   xmlns:inkscape="http://www.inkscape.org/namespaces/inkscape"
   width="189"
   height="90"
   id="svg6964"
   version="1.1"
   inkscape:version="0.48.5 r10040"
   sodipodi:docname="cricuit_board.svg">
  <defs
     id="defs6966" />
  <sodipodi:namedview
     id="base"
     pagecolor="#ffffff"
     bordercolor="#666666"
     borderopacity="1.0"
     inkscape:pageopacity="0.0"
     inkscape:pageshadow="2"
     inkscape:zoom="2.6340741"
     inkscape:cx="176.28067"
     inkscape:cy="57.041341"
     inkscape:document-units="px"
     inkscape:current-layer="layer1"
     showgrid="false"
     inkscape:window-width="1667"
     inkscape:window-height="900"
     inkscape:window-x="0"
     inkscape:window-y="0"
     inkscape:window-maximized="0"
     units="in" />
  <metadata
     id="metadata6969">
    <rdf:RDF>
      <cc:Work
         rdf:about="">
        <dc:format>image/svg+xml</dc:format>
        <dc:type
           rdf:resource="http://purl.org/dc/dcmitype/StillImage" />
        <dc:title></dc:title>
      </cc:Work>
    </rdf:RDF>
  </metadata>
  <g
     inkscape:label="Layer 1"
     inkscape:groupmode="layer"
     id="layer1"
     transform="translate(0,-962.35975)">
    <rect
       style="color:#000000;fill:#ffffff;fill-opacity:1;fill-rule:nonzero;stroke:none;stroke-width:0.08465237;marker:none;visibility:visible;display:inline;overflow:visible;enable-background:accumulate"
       id="rect12064"
       width="185.71089"
       height="71.601906"
       x="1.2751254"
       y="965.40356"
       inkscape:export-filename="/Users/jackheaton/Desktop/logo_white.png"
       inkscape:export-xdpi="300"
       inkscape:export-ydpi="300" />
    <text
       xml:space="preserve"
       style="font-size:6.25344181px;font-style:normal;font-variant:normal;font-weight:normal;font-stretch:normal;line-height:125%;letter-spacing:0px;word-spacing:0px;fill:#000000;fill-opacity:1;stroke:none;display:inline;font-family:Century Gothic;-inkscape-font-specification:Century Gothic"
       x="60.370186"
       y="984.96069"
       id="text5951"
       sodipodi:linespacing="125%"
       inkscape:export-filename="/Users/jackheaton/Desktop/logo_black.png"
       inkscape:export-xdpi="300"
       inkscape:export-ydpi="300"><tspan
         sodipodi:role="line"
         id="tspan5953"
         x="60.370186"
         y="984.96069"
         style="font-size:14.29358101px;font-style:normal;font-variant:normal;font-weight:bold;font-stretch:normal;fill:#000000;font-family:Phosphate;-inkscape-font-specification:Phosphate Bold">Project</tspan></text>
    <path
       inkscape:connector-curvature="0"
       id="path11971"
       style="font-size:43.68561554px;font-style:normal;font-variant:normal;font-weight:bold;font-stretch:normal;line-height:125%;letter-spacing:0px;word-spacing:0px;fill:#000000;fill-opacity:1;stroke:none;display:inline;font-family:Phosphate;-inkscape-font-specification:Phosphate Bold"
       d="M 92.84759,993.56403 92.84759,987.05276 112.06449,987.05276 112.06449,993.56403 92.84759,993.56403 M 109.75965,989.93385 95.152434,989.93385 95.152434,990.68295 109.75965,990.68295 109.75965,989.93385 M 102.47045,1015.3231 C 101.08753,1015.3231 99.781442,1015.0637 98.552123,1014.5452 97.32287,1014.0074 96.256905,1013.2871 95.354112,1012.3844 94.432183,1011.4625 93.711941,1010.3868 93.193303,1009.1574 92.655538,1007.9283 92.386663,1006.6222 92.386595,1005.2392 92.386663,1003.8563 92.655538,1002.5502 93.193303,1001.3209 93.711941,1000.0917 94.432183,999.02569 95.354112,998.12295 96.256905,997.20098 97.32287,996.48071 98.552123,995.96209 99.781442,995.42431 101.08753,995.1554 102.47045,995.15538 103.85337,995.1554 105.15946,995.42431 106.38871,995.96209 107.61803,996.48071 108.69362,997.20098 109.61554,998.12295 110.51828,999.02569 111.23858,1000.0917 111.77635,1001.3209 112.29499,1002.5502 112.55431,1003.8563 112.55431,1005.2392 112.55431,1006.6222 112.29499,1007.9283 111.77635,1009.1574 111.23858,1010.3868 110.51828,1011.4625 109.61554,1012.3844 108.69362,1013.2871 107.61803,1014.0074 106.38871,1014.5452 105.15946,1015.0637 103.85337,1015.3231 102.47045,1015.3231 M 102.47045,1012.6148 C 103.48846,1012.6148 104.44877,1012.4227 105.35157,1012.0386 106.23511,1011.6544 107.01299,1011.1263 107.68524,1010.454 108.35747,1009.7817 108.88566,1009.0038 109.26982,1008.1203 109.654,1007.2176 109.84604,1006.2573 109.84604,1005.2392 109.84604,1004.2212 109.654,1003.2705 109.26982,1002.387 108.88566,1001.4843 108.35747,1000.6967 107.68524,1000.0244 107.01299,999.35222 106.23511,998.82397 105.35157,998.43981 104.44877,998.05574 103.48846,997.86362 102.47045,997.86362 101.45244,997.86362 100.50169,998.05574 99.618145,998.43981 98.715419,998.82397 97.927898,999.35222 97.255666,1000.0244 96.583433,1000.6967 96.055235,1001.4843 95.671071,1002.387 95.286909,1003.2705 95.094857,1004.2212 95.094857,1005.2392 95.094857,1006.2573 95.286909,1007.2176 95.671071,1008.1203 96.055235,1009.0038 96.583433,1009.7817 97.255666,1010.454 97.927898,1011.1263 98.715419,1011.6544 99.618145,1012.0386 100.50169,1012.4227 101.45244,1012.6148 102.47045,1012.6148 M 102.47045,1009.2728 C 103.02747,1009.2728 103.55566,1009.1671 104.05505,1008.9558 104.53524,1008.7445 104.95778,1008.4565 105.32274,1008.0915 105.68766,1007.7265 105.97579,1007.304 106.18703,1006.8239 106.39833,1006.3245 106.504,1005.7962 106.504,1005.2392 106.504,1004.6822 106.39833,1004.1636 106.18703,1003.6835 105.97579,1003.1841 105.68766,1002.7519 105.32274,1002.387 104.95778,1002.0221 104.53524,1001.7339 104.05505,1001.5226 103.55566,1001.3114 103.02747,1001.2057 102.47045,1001.2057 101.91343,1001.2057 101.39486,1001.3114 100.91467,1001.5226 100.41529,1001.7339 99.983122,1002.0221 99.618145,1002.387 99.253244,1002.7519 98.965108,1003.1841 98.753802,1003.6835 98.542562,1004.1636 98.43691,1004.6822 98.43691,1005.2392 98.43691,1005.7962 98.542562,1006.3245 98.753802,1006.8239 98.965108,1007.304 99.253244,1007.7265 99.618145,1008.0915 99.983122,1008.4565 100.41529,1008.7445 100.91467,1008.9558 101.39486,1009.1671 101.91343,1009.2728 102.47045,1009.2728 M 109.09697,1005.2392 C 109.09697,1006.1611 108.92411,1007.0255 108.57833,1007.8322 108.23262,1008.6197 107.76207,1009.3208 107.16659,1009.9354 106.552,1010.5309 105.85094,1011.0014 105.06343,1011.3471 104.25673,1011.6929 103.39237,1011.8658 102.47045,1011.8658 101.54852,1011.8658 100.6938,1011.6929 99.906291,1011.3471 99.099583,1011.0014 98.398528,1010.5309 97.803059,1009.9354 97.188461,1009.3208 96.708272,1008.6197 96.362492,1007.8322 96.016777,1007.0255 95.843929,1006.1611 95.843929,1005.2392 95.843929,1004.3172 96.016777,1003.4625 96.362492,1002.6751 96.708272,1001.8683 97.188461,1001.1673 97.803059,1000.5718 98.398528,999.95722 99.099583,999.47705 99.906291,999.13131 100.6938,998.78556 101.54852,998.61272 102.47045,998.61272 103.39237,998.61272 104.25673,998.78556 105.06343,999.13131 105.85094,999.47705 106.552,999.95722 107.16659,1000.5718 107.76207,1001.1673 108.23262,1001.8683 108.57833,1002.6751 108.92411,1003.4625 109.09697,1004.3172 109.09697,1005.2392 M 60.870759,987.17005 68.29944,987.17005 75.643703,997.97542 82.945759,987.17005 90.374438,987.17005 90.374438,1015.3231 81.384048,1015.3231 81.384048,1005.1931 75.643703,1013.6347 69.861151,1005.1931 69.861151,1015.3231 60.870759,1015.3231 60.870759,987.17005 M 66.189019,1011.9465 66.189019,992.57272 75.643703,1006.3327 85.05618,992.57272 85.05618,1011.9465 86.153599,1011.9465 86.153599,990.54672 85.05618,990.54672 75.643703,1004.4334 66.189019,990.54672 65.091601,990.54672 65.091601,1011.9465 66.189019,1011.9465 M 164.58857,994.55651 159.39693,994.55651 159.39693,987.17005 179.06605,987.17005 179.06605,994.55651 173.87441,994.55651 173.87441,1015.3231 164.58857,1015.3231 164.58857,994.55651 M 169.78019,1011.9465 169.78019,991.55972 175.81601,991.55972 175.81601,990.54672 162.64698,990.54672 162.64698,991.55972 168.68278,991.55972 168.68278,1011.9465 169.78019,1011.9465 M 141.41878,987.17005 158.00669,987.17005 158.00669,994.55651 150.40918,994.55651 150.40918,997.67993 157.88006,997.67993 157.88006,1004.6866 150.40918,1004.6866 150.40918,1007.9365 158.30214,1007.9365 158.30214,1015.3231 141.41878,1015.3231 141.41878,987.17005 M 155.17872,1011.9465 155.17872,1010.9334 146.73705,1010.9334 146.73705,1001.6897 154.75665,1001.6897 154.75665,1000.6768 146.73705,1000.6768 146.73705,991.55972 155.17872,991.55972 155.17872,990.54672 145.63963,990.54672 145.63963,1011.9465 155.17872,1011.9465 M 114.46146,987.17005 121.84793,987.17005 129.61428,998.01758 129.61428,987.17005 138.43584,987.17005 138.43584,1015.3231 131.00716,1015.3231 123.28301,1004.5177 123.28301,1015.3231 114.46146,1015.3231 114.46146,987.17005 M 119.48427,1011.9465 119.48427,992.4461 133.41304,1011.9465 134.51045,1011.9465 134.51045,990.54672 133.41304,990.54672 133.41304,1010.0471 119.48427,990.54672 118.38684,990.54672 118.38684,1011.9465 119.48427,1011.9465"
       inkscape:export-filename="/Users/jackheaton/Desktop/logo_black.png"
       inkscape:export-xdpi="300"
       inkscape:export-ydpi="300" />
    <path
       inkscape:connector-curvature="0"
       id="path5931-6"
       style="fill:#000000;stroke:#000000;stroke-width:0.15052114px;stroke-linecap:butt;stroke-linejoin:miter;stroke-opacity:1;display:inline"
       d="M 38.994645,985.98478 C 41.459188,985.28472 41.251679,986.32572 44.146396,987.01016 44.974052,985.71227 39.748395,983.23174 38.994645,985.98478 z M 26.105263,986.40401 C 29.953457,983.36239 32.619682,984.82913 35.514401,985.51357 31.605727,981.39518 26.752579,983.27844 26.105263,986.40401 z M 19.799391,988.53818 C 13.981448,999.62149 14.37923,1003.9849 15.528353,1007.7579 16.677477,1011.5308 22.839918,1017.2155 27.645305,1022.3867 31.124511,1026.1307 36.888342,1035.4593 40.34083,1034.0943 43.793319,1032.7293 45.400463,1026.0327 46.822631,1021.5446 48.244815,1017.0565 49.33936,1012.5245 48.779405,1007.3534 48.219467,1002.1821 47.029206,1001.5365 46.239361,998.50552 45.449533,995.47448 45.834851,994.67513 43.901589,993.11496 43.798647,996.13058 42.69313,997.15745 42.579832,998.81127 40.636198,999.54986 39.342227,996.36322 38.003042,996.26649 36.663855,996.16978 36.741885,997.44711 35.971006,997.38599 35.200127,997.32489 36.154055,996.12758 34.136529,995.96074 32.119004,995.79392 29.741252,995.20414 26.003692,999.72378 22.367793,998.5491 23.990381,991.38564 19.799391,988.53818 z M 35.359514,999.625 C 36.121196,1001.2491 37.754336,1001.5333 39.832822,1002.3673 35.901013,1001.0044 34.818014,1002.4165 30.886206,1002.7766 34.879051,1001.8746 35.881597,1001.5819 35.359514,999.625 z"
       inkscape:export-filename="/Users/jackheaton/Desktop/logo_black.png"
       inkscape:export-xdpi="300"
       inkscape:export-ydpi="300" />
    <path
       style="font-size:43.68561554px;font-style:normal;font-variant:normal;font-weight:bold;font-stretch:normal;line-height:125%;letter-spacing:0px;word-spacing:0px;fill:#fff6d5;fill-opacity:1;stroke:none;font-family:Phosphate;-inkscape-font-specification:Phosphate Bold"
       d="M 95.151891,989.93598 95.151891,990.68388 109.76184,990.68388 109.76184,989.93598 95.151891,989.93598 z M 65.089994,990.54747 65.089994,1011.945 66.190679,1011.945 66.190679,992.57479 75.645289,1006.3334 85.057564,992.57479 85.057564,1011.945 86.153545,1011.945 86.153545,990.54747 85.057564,990.54747 75.645289,1004.4331 66.190679,990.54747 65.089994,990.54747 z M 118.38858,990.54747 118.38858,1011.945 119.48457,1011.945 119.48457,992.44779 133.41248,1011.945 134.50847,1011.945 134.50847,990.54747 133.41248,990.54747 133.41248,1010.0447 119.48457,990.54747 118.38858,990.54747 z M 145.63762,990.54747 145.63762,1011.945 155.17689,1011.945 155.17689,1010.9337 146.7383,1010.9337 146.7383,1001.6908 154.75825,1001.6908 154.75825,1000.6747 146.7383,1000.6747 146.7383,991.55877 155.17689,991.55877 155.17689,990.54747 145.63762,990.54747 z M 162.64651,990.54747 162.64651,991.55877 168.68147,991.55877 168.68147,1011.945 169.78216,1011.945 169.78216,991.55877 175.8171,991.55877 175.8171,990.54747 162.64651,990.54747 z M 97.240369,996.62945 C 96.963438,996.79686 96.697251,996.97779 96.440726,997.1704 96.697017,996.97772 96.963671,996.79692 97.240369,996.62945 z M 96.440726,997.1704 C 96.185134,997.3623 95.93745,997.56963 95.702231,997.78655 95.938126,997.56872 96.184425,997.36307 96.440726,997.1704 z M 107.70629,996.62945 C 107.92692,996.76212 108.14213,996.90431 108.35071,997.05279 108.1411,996.90366 107.92807,996.76265 107.70629,996.62945 z M 108.67998,997.3021 C 108.87971,997.45723 109.07528,997.61598 109.26324,997.78655 109.07602,997.61681 108.87896,997.45657 108.67998,997.3021 z M 109.26324,997.78655 C 109.38329,997.89551 109.50079,998.00999 109.61603,998.12529 109.61523,998.12446 109.61683,998.12137 109.61603,998.12053 109.50079,998.00531 109.38334,997.89551 109.26324,997.78655 z M 95.697523,997.78655 C 95.579521,997.89551 95.466996,998.00531 95.354147,998.12053 95.353353,998.12137 95.354947,998.12446 95.354147,998.12529 95.466219,998.01082 95.58043,997.89485 95.697523,997.78655 z M 95.354147,998.12529 C 95.124555,998.35022 94.904833,998.58543 94.700324,998.83081 94.905593,998.58475 95.12367,998.35097 95.354147,998.12529 z M 94.700324,998.83081 C 94.495104,999.07711 94.301758,999.33077 94.121762,999.59753 94.301825,999.33102 94.495054,999.07695 94.700324,998.83081 z M 102.47098,997.86186 C 101.45296,997.86186 100.50402,998.05632 99.620484,998.4404 98.717749,998.82455 97.926713,999.35339 97.25448,1000.0256 96.582247,1000.6979 96.053464,1001.4842 95.669302,1002.3869 95.285138,1003.2705 95.095441,1004.2194 95.095441,1005.2374 95.095441,1006.2554 95.285138,1007.218 95.669302,1008.1208 96.053464,1009.0043 96.582247,1009.7816 97.25448,1010.4539 97.926713,1011.1262 98.717749,1011.6549 99.620484,1012.0391 100.50402,1012.4232 101.45296,1012.6129 102.47098,1012.6129 103.48899,1012.6129 104.4469,1012.4232 105.3497,1012.0391 106.23324,1011.6549 107.01524,1011.1262 107.68747,1010.4539 108.35972,1009.7816 108.88379,1009.0043 109.26795,1008.1208 109.65211,1007.218 109.84652,1006.2554 109.84652,1005.2374 109.84652,1004.2194 109.65211,1003.2705 109.26795,1002.3869 108.88379,1001.4842 108.35972,1000.6979 107.68747,1000.0256 107.01524,999.35339 106.23324,998.82455 105.3497,998.4404 104.4469,998.05632 103.48899,997.86186 102.47098,997.86186 z M 102.47098,998.61448 C 103.3929,998.61448 104.25605,998.78614 105.06276,999.13189 105.85028,999.47763 106.55076,999.95664 107.16535,1000.5712 107.76082,1001.1667 108.23079,1001.8672 108.57649,1002.6738 108.92227,1003.4614 109.0986,1004.3155 109.0986,1005.2374 109.0986,1006.1594 108.92227,1007.0272 108.57649,1007.8339 108.23079,1008.6213 107.76082,1009.3219 107.16535,1009.9365 106.55076,1010.5319 105.85028,1011.0018 105.06276,1011.3476 104.25605,1011.6934 103.3929,1011.865 102.47098,1011.865 101.54905,1011.865 100.69493,1011.6934 99.907418,1011.3476 99.10071,1011.0018 98.400289,1010.5319 97.80482,1009.9365 97.190232,1009.3219 96.706536,1008.6213 96.360763,1007.8339 96.015049,1007.0272 95.843344,1006.1594 95.843344,1005.2374 95.843344,1004.3155 96.015049,1003.4614 96.360763,1002.6738 96.706536,1001.8672 97.190232,1001.1667 97.80482,1000.5712 98.400289,999.95664 99.10071,999.47763 99.907418,999.13189 100.69493,998.78614 101.54905,998.61448 102.47098,998.61448 z M 101.28092,1001.3849 C 101.15607,1001.4246 101.03407,1001.4685 100.91403,1001.5214 101.03407,1001.4685 101.15626,1001.4247 101.28092,1001.3849 z M 103.67515,1001.3849 C 103.80197,1001.4244 103.92796,1001.4692 104.05144,1001.5214 103.92792,1001.4693 103.80221,1001.4242 103.67515,1001.3849 z M 98.92903,1003.323 C 98.866593,1003.4394 98.807814,1003.5603 98.754988,1003.6852 98.807814,1003.5603 98.866944,1003.4391 98.92903,1003.323 z M 92.498953,1003.718 C 92.423442,1004.2132 92.386087,1004.7203 92.386061,1005.2374 92.386087,1004.7188 92.423316,1004.2151 92.498953,1003.718 z M 92.386061,1005.2374 C 92.386087,1005.756 92.422973,1006.2638 92.498953,1006.7614 92.423316,1006.2644 92.386087,1005.756 92.386061,1005.2374 z M 98.679726,1003.8639 C 98.633512,1003.9863 98.595138,1004.1129 98.562133,1004.2402 98.595239,1004.1133 98.633471,1003.9862 98.679726,1003.8639 z M 98.562133,1004.2402 C 98.531859,1004.3568 98.506042,1004.477 98.486872,1004.5977 98.506218,1004.4759 98.531442,1004.358 98.562133,1004.2402 z M 98.458651,1004.8282 C 98.445443,1004.9626 98.435132,1005.0981 98.435132,1005.2374 98.435132,1005.3767 98.445443,1005.5157 98.458651,1005.6513 98.445368,1005.5153 98.439832,1005.3767 98.439832,1005.2374 98.439832,1005.0981 98.445368,1004.9625 98.458651,1004.8282 z M 98.482163,1005.8535 C 98.501977,1005.9875 98.52912,1006.1184 98.562133,1006.2488 98.529028,1006.118 98.502068,1005.9879 98.482163,1005.8535 z M 98.562133,1006.2488 C 98.579125,1006.3158 98.598094,1006.3801 98.618576,1006.4462 98.598738,1006.3819 98.578683,1006.314 98.562133,1006.2488 z M 98.783208,1006.8791 C 98.82883,1006.9788 98.876646,1007.0807 98.92903,1007.1754 98.876387,1007.08 98.82918,1006.9798 98.783208,1006.8791 z M 94.121762,1010.8866 C 94.301758,1011.1551 94.495104,1011.4134 94.700324,1011.6628 94.495054,1011.413 94.301825,1011.1556 94.121762,1010.8866 z M 94.700324,1011.6628 C 94.905551,1011.9121 95.12367,1012.152 95.354147,1012.3824 95.12367,1012.152 94.905593,1011.9124 94.700324,1011.6628 z"
       id="path6871"
       inkscape:export-filename="/Users/jackheaton/Desktop/logo_white.png"
       inkscape:export-xdpi="300"
       inkscape:export-ydpi="300"
       inkscape:connector-curvature="0" />
    <path
       style="font-size:63.99999237px;font-style:normal;font-variant:normal;font-weight:bold;font-stretch:normal;line-height:125%;letter-spacing:0px;word-spacing:0px;fill:#fff6d5;fill-opacity:1;stroke:none;font-family:Phosphate;-inkscape-font-specification:Phosphate Bold"
       d="M 75.090242,976.20563 C 75.172128,976.26237 75.249252,976.32152 75.325432,976.38437 75.25013,976.32225 75.170874,976.26161 75.090242,976.20563 z M 82.131809,976.53959 C 81.626763,976.53959 81.149719,976.63595 80.701859,976.82652 80.263518,977.01711 79.878241,977.27854 79.544727,977.61205 79.211208,977.94557 78.94507,978.34014 78.754491,978.788 78.563909,979.22634 78.472262,979.6941 78.472263,980.19914 78.472262,980.70418 78.563909,981.18122 78.754491,981.62908 78.94507,982.06743 79.211208,982.45271 79.544727,982.78622 79.878241,983.11974 80.263518,983.38588 80.701859,983.57646 81.149719,983.76703 81.626763,983.85868 82.131809,983.85868 82.636844,983.85868 83.104602,983.76703 83.542944,983.57646 83.990804,983.38588 84.385366,983.11974 84.718891,982.78622 85.052399,982.45271 85.313832,982.06743 85.504423,981.62908 85.694995,981.18122 85.791345,980.70418 85.791354,980.19914 85.791345,979.6941 85.694995,979.22634 85.504423,978.788 85.313832,978.34014 85.052399,977.94557 84.718891,977.61205 84.385366,977.27854 83.990804,977.01711 83.542944,976.82652 83.104602,976.63595 82.636844,976.53959 82.131809,976.53959 z M 104.82758,976.53959 C 104.34159,976.53959 103.87841,976.62678 103.43055,976.79829 102.99221,976.96983 102.59764,977.21751 102.2546,977.5415 101.92109,977.85596 101.65048,978.24124 101.44085,978.69862 101.24074,979.1465 101.1398,979.64645 101.1398,980.19914 101.1398,980.76136 101.23615,981.26589 101.42674,981.71376 101.62685,982.16162 101.89744,982.5516 102.24049,982.87558 102.58353,983.19005 102.98726,983.43316 103.44466,983.60468 103.90205,983.7762 104.38826,983.85868 104.90283,983.85868 105.1887,983.85868 105.44555,983.83577 105.67425,983.78813 105.90295,983.74048 106.09552,983.69008 106.25753,983.6329 106.43857,983.56619 106.60377,983.48818 106.74671,983.40241 L 106.54446,983.05904 C 106.42058,983.1448 106.2784,983.21823 106.11642,983.27541 105.97347,983.33258 105.7991,983.383 105.59899,983.43063 105.39888,983.46875 105.16964,983.48708 104.90283,983.48708 104.37874,983.48708 103.90627,983.4046 103.48699,983.23308 103.06771,983.06156 102.70993,982.82762 102.41453,982.53221 102.12866,982.23681 101.90388,981.8882 101.74189,981.48797 101.58942,981.08776 101.51141,980.65654 101.51141,980.19914 101.51141,979.74174 101.58942,979.31523 101.74189,978.915 101.90388,978.5148 102.12866,978.16616 102.41453,977.87076 102.7004,977.57537 103.04902,977.34143 103.45877,977.1699 103.86852,976.99838 104.32253,976.9112 104.82758,976.91119 105.07533,976.9112 105.29552,976.93423 105.4861,976.97234 105.68622,977.00094 105.85129,977.0376 105.98471,977.08522 106.1467,977.13288 106.28898,977.18787 106.40334,977.25456 L 106.6009,976.91119 C 106.44843,976.84449 106.28793,976.78493 106.11642,976.72774 105.95441,976.6801 105.76629,976.63886 105.55666,976.60074 105.34702,976.56263 105.10391,976.53959 104.82758,976.53959 z M 62.300648,976.57252 62.300648,983.81635 62.672247,983.81635 62.672247,981.54442 63.914048,981.54442 C 64.342851,981.54442 64.737292,981.4986 65.099401,981.40331 65.471029,981.29849 65.792153,981.14245 66.058974,980.94233 66.32578,980.74223 66.532226,980.48538 66.675169,980.17092 66.827627,979.85646 66.900943,979.48493 66.900951,979.05612 66.900943,978.62732 66.827627,978.25578 66.675169,977.94132 66.532226,977.62687 66.32578,977.37002 66.058974,977.1699 65.792153,976.96979 65.471029,976.82304 65.099401,976.72774 64.737292,976.62293 64.342851,976.57253 63.914048,976.57252 L 62.300648,976.57252 z M 70.424087,976.57252 70.424087,983.81635 70.795685,983.81635 70.795685,981.64319 71.966928,981.64319 C 72.338558,981.6432 72.700924,981.60654 73.053503,981.53031 L 74.412897,983.81635 74.855053,983.81635 73.425102,981.41742 C 73.939664,981.23637 74.347853,980.95648 74.65279,980.58484 74.957712,980.20369 75.113753,979.71289 75.113762,979.11256 75.113753,978.69329 75.03115,978.32634 74.869164,978.01188 74.707162,977.69742 74.482388,977.43598 74.196522,977.22634 73.920174,977.00718 73.589883,976.84667 73.208727,976.74185 72.82756,976.62752 72.414789,976.57253 71.966928,976.57252 L 70.424087,976.57252 z M 90.608029,976.57252 90.608029,982.58866 C 90.608029,982.88406 90.557623,983.10883 90.452806,983.2613 90.34798,983.40423 90.104879,983.47297 89.723722,983.47296 L 88.56659,983.47296 88.56659,983.81635 89.723722,983.81635 C 90.190636,983.81635 90.516345,983.71542 90.697401,983.5153 90.887983,983.30567 90.979626,982.99841 90.979626,982.58866 L 90.979626,976.57252 90.608029,976.57252 z M 94.766175,976.57252 94.766175,983.81635 97.997674,983.81635 97.997674,983.47296 95.137772,983.47296 95.137772,980.34495 97.856561,980.34495 97.856561,980.00157 95.137772,980.00157 95.137772,976.91119 97.997674,976.91119 97.997674,976.57252 94.766175,976.57252 z M 109.29147,976.57252 109.29147,976.91119 111.33761,976.91119 111.33761,983.81635 111.70922,983.81635 111.70922,976.91119 113.75065,976.91119 113.75065,976.57252 109.29147,976.57252 z M 62.672247,976.91119 63.914048,976.91119 C 64.257088,976.9112 64.582796,976.95255 64.887731,977.02878 65.202184,977.09549 65.477364,977.21018 65.715598,977.37217 65.953817,977.53416 66.146517,977.75436 66.289459,978.03069 66.432388,978.30705 66.501123,978.64637 66.50113,979.05612 66.501123,979.46587 66.432388,979.8099 66.289459,980.08625 66.146517,980.36259 65.953817,980.58278 65.715598,980.74477 65.477364,980.90677 65.202184,981.02604 64.887731,981.10227 64.582796,981.16896 64.257088,981.20104 63.914048,981.20104 L 62.672247,981.20104 62.672247,976.91119 z M 70.795685,976.91119 71.966928,976.91119 C 72.834067,976.9112 73.512976,977.10389 73.998964,977.48505 74.494468,977.86622 74.742154,978.40741 74.742162,979.11256 74.742154,979.81771 74.494468,980.36362 73.998964,980.74477 73.512976,981.11642 72.834067,981.29982 71.966928,981.29982 L 70.795685,981.29982 70.795685,976.91119 z M 82.131809,976.91119 C 82.589197,976.9112 83.011133,976.99838 83.401831,977.1699 83.802043,977.34143 84.150664,977.57995 84.446072,977.88487 84.750992,978.18028 84.989516,978.52891 85.161047,978.92911 85.332561,979.31981 85.419746,979.74174 85.419755,980.19914 85.419746,980.65654 85.332561,981.08776 85.161047,981.48797 84.989516,981.87867 84.750992,982.22728 84.446072,982.53221 84.150664,982.82762 83.802043,983.06156 83.401831,983.23308 83.011133,983.4046 82.589197,983.48708 82.131809,983.48708 81.67441,983.48708 81.243187,983.4046 80.842972,983.23308 80.452277,983.06156 80.103657,982.82762 79.798731,982.53221 79.503328,982.22728 79.269387,981.87867 79.097867,981.48797 78.926343,981.08776 78.843862,980.65654 78.843862,980.19914 78.843862,979.74174 78.926343,979.31981 79.097867,978.92911 79.269387,978.52891 79.503328,978.18028 79.798731,977.88487 80.103657,977.57995 80.452277,977.34143 80.842972,977.1699 81.243187,976.99838 81.67441,976.9112 82.131809,976.91119 z M 67.888746,977.27338 C 67.908302,977.30985 67.92675,977.34862 67.945191,977.38628 67.973777,977.44345 68.000143,977.50001 68.025155,977.5603 68.000856,977.50213 67.977572,977.44163 67.949896,977.38628 67.930948,977.34759 67.908853,977.31084 67.888746,977.27338 z M 63.914048,977.99777 63.914048,978.00247 64.045753,978.00247 C 64.231159,978.00247 64.393728,978.02265 64.530243,978.06362 64.392956,978.0218 64.233213,977.99777 64.045753,977.99777 L 63.914048,977.99777 z M 72.037485,977.99777 72.037485,978.00247 72.197414,978.00247 C 72.283117,978.00247 72.36746,978.00739 72.446715,978.01658 72.366133,978.00718 72.284626,977.99777 72.197414,977.99777 L 72.037485,977.99777 z M 72.601939,978.0401 C 72.674492,978.05493 72.742356,978.0732 72.808907,978.09655 72.743512,978.07376 72.673121,978.05468 72.601939,978.0401 z M 64.591393,978.08243 C 64.638864,978.09982 64.682288,978.12065 64.723098,978.14357 64.682568,978.12058 64.638551,978.09991 64.591393,978.08243 z M 72.917093,978.13888 C 72.98613,978.16937 73.048005,978.20656 73.109947,978.24706 73.140271,978.26615 73.17262,978.2862 73.19932,978.30822 73.171178,978.28454 73.142107,978.26261 73.109947,978.24236 73.049698,978.20297 72.984105,978.1687 72.917093,978.13888 z M 104.8558,978.20003 C 104.99872,978.20003 105.13406,978.20918 105.26033,978.22825 105.13406,978.20918 104.99873,978.20003 104.8558,978.20003 z M 82.719782,978.2894 C 82.781991,978.30937 82.843665,978.33375 82.903229,978.35995 82.965166,978.38617 83.02431,978.41394 83.081974,978.44463 83.024206,978.41366 82.965168,978.38146 82.903229,978.35525 82.843672,978.32905 82.781721,978.30906 82.719782,978.2894 z M 104.2349,978.2894 C 104.16998,978.30906 104.10398,978.32905 104.04205,978.35525 103.9801,978.38146 103.92166,978.41366 103.86331,978.44463 103.92166,978.41366 103.9801,978.38617 104.04205,978.35995 104.10398,978.33375 104.16998,978.30906 104.2349,978.2894 z M 81.482686,978.30822 C 81.436526,978.32385 81.38678,978.33613 81.341573,978.35525 81.30164,978.37282 81.267007,978.39669 81.228682,978.41641 81.265968,978.39743 81.30273,978.37705 81.341573,978.35995 81.387898,978.34035 81.43522,978.32434 81.482686,978.30822 z M 68.24153,978.35995 C 68.26297,978.50558 68.276715,978.6581 68.283864,978.81622 68.276771,978.65833 68.262845,978.50507 68.24153,978.35995 z M 86.906151,978.72215 C 86.924188,978.77883 86.942023,978.83417 86.957892,978.89149 86.941974,978.83402 86.924278,978.779 86.906151,978.72215 z M 65.155846,978.82093 C 65.166567,978.89439 65.169959,978.97274 65.169959,979.05612 65.169959,979.1395 65.166567,979.21663 65.155846,979.29131 65.16672,979.21815 65.17466,979.13785 65.174662,979.05612 65.17466,978.97274 65.167163,978.89477 65.155846,978.82093 z M 87.033153,979.20192 C 87.066505,979.36392 87.091737,979.52907 87.108414,979.69583 87.091962,979.52942 87.066203,979.36347 87.033153,979.20192 z M 83.886321,979.25367 C 83.917003,979.31199 83.944781,979.37047 83.97099,979.43243 83.996606,979.49064 84.021894,979.55104 84.041546,979.61117 84.021894,979.54922 84.001896,979.48727 83.975693,979.42771 83.950039,979.36707 83.916541,979.31031 83.886321,979.25367 z M 68.283864,979.30071 C 68.276715,979.45913 68.26297,979.61047 68.24153,979.75697 68.262845,979.61019 68.276771,979.45927 68.283864,979.30071 z M 76.49197,979.80872 C 76.475424,979.90827 76.455446,980.00477 76.43082,980.09565 76.454884,980.00467 76.476129,979.90834 76.49197,979.80872 z M 76.341448,980.36377 C 76.275233,980.52891 76.203018,980.6783 76.129778,980.81532 76.204518,980.67853 76.274726,980.53053 76.341448,980.36377 z M 68.095713,980.37788 C 68.052832,980.50652 68.002363,980.62805 67.945191,980.74477 67.916603,980.80195 67.887087,980.85491 67.855819,980.9094 67.886337,980.85597 67.921911,980.80074 67.949896,980.74477 68.007063,980.62805 68.052935,980.50674 68.095713,980.37788 z M 87.108414,980.70714 C 87.091737,980.87391 87.066505,981.03905 87.033153,981.20104 87.066203,981.03863 87.091962,980.87422 87.108414,980.70714 z M 84.022731,980.84826 C 84.006611,980.89573 83.990587,980.94305 83.97099,980.98937 83.953899,981.02821 83.933523,981.06498 83.914543,981.10227 83.934256,981.06393 83.958121,981.0293 83.975693,980.98937 83.994819,980.94417 84.007094,980.89442 84.022731,980.84826 z M 67.855819,980.91411 C 67.793836,981.02182 67.726031,981.12734 67.653557,981.22457 67.726674,981.12608 67.793344,981.0232 67.855819,980.91411 z M 86.976708,981.44564 C 86.914325,981.68356 86.83156,981.91919 86.732112,982.14651 86.699949,982.22273 86.668619,982.29844 86.633332,982.37228 86.668698,982.2985 86.704652,982.22273 86.736814,982.14651 86.836864,981.91781 86.9146,981.68563 86.976708,981.44564 z M 86.633332,982.37228 C 86.562755,982.51999 86.485927,982.66216 86.402846,982.80033 86.486256,982.66247 86.5626,982.51984 86.633332,982.37228 z M 75.593547,981.53031 C 75.486345,981.63512 75.373984,981.73148 75.254875,981.81723 L 75.254875,981.82195 C 75.373979,981.73618 75.486625,981.63667 75.593547,981.53031 z M 67.286661,981.62908 C 67.197327,981.71127 67.104487,981.7881 67.004434,981.85957 66.809085,982.00251 66.595798,982.12636 66.364719,982.23117 66.596395,982.12654 66.809081,982.0072 67.004434,981.86428 67.103536,981.79349 67.198184,981.71056 67.286661,981.62908 z M 66.185975,982.30643 C 66.005966,982.3779 65.816925,982.43985 65.616818,982.48988 65.816925,982.43985 66.005547,982.37776 66.185975,982.30643 z M 65.616818,982.48988 C 65.354767,982.55658 65.081847,982.60235 64.798359,982.6357 65.082352,982.60351 65.354765,982.55658 65.616818,982.48988 z M 108.346,984.10328 C 108.21736,984.20809 108.07514,984.30671 107.92267,984.39962 108.07514,984.30671 108.21736,984.20809 108.346,984.10328 z M 101.53022,984.1268 C 101.65528,984.22447 101.78485,984.31856 101.92064,984.40432 101.78484,984.31856 101.65529,984.22447 101.53022,984.1268 z M 79.130794,984.21146 C 79.258237,984.30553 79.393892,984.39654 79.530615,984.47959 79.392445,984.39591 79.259435,984.30646 79.130794,984.21146 z M 85.123416,984.21146 C 84.932685,984.35395 84.730137,984.48485 84.516628,984.60188 84.729812,984.48445 84.93309,984.35445 85.123416,984.21146 z M 107.68747,984.53603 C 107.60529,984.5795 107.51691,984.61782 107.42876,984.65833 107.27629,984.72503 107.1089,984.79395 106.92546,984.85588 107.10891,984.79395 107.27629,984.72973 107.42876,984.66303 107.51691,984.62253 107.60529,984.5795 107.68747,984.53603 z M 84.300254,984.71477 C 84.226553,984.75095 84.150703,984.78491 84.074472,984.81826 83.923374,984.882 83.76928,984.93963 83.613502,984.98759 83.771044,984.93954 83.922,984.88727 84.074472,984.82296 84.150702,984.7896 84.226617,984.75103 84.300254,984.71477 z M 91.200709,984.7477 C 91.055087,984.80427 90.892208,984.85016 90.71622,984.8841 90.892208,984.85016 91.055087,984.80427 91.200709,984.7477 z M 90.443396,984.92645 C 90.252221,984.94907 90.044045,984.95936 89.822495,984.95936 90.044045,984.95936 90.252221,984.94907 90.443396,984.92645 z M 106.63853,984.94525 C 106.53907,984.97503 106.43529,985.00134 106.32808,985.02992 106.11367,985.0871 105.8867,985.13303 105.64134,985.16163 105.8867,985.13303 106.11367,985.0918 106.32808,985.03462 106.43528,985.00604 106.53907,984.97503 106.63853,984.94525 z M 80.890009,985.05345 C 81.128777,985.11337 81.374177,985.15661 81.6238,985.18044 81.373661,985.15632 81.129427,985.11374 80.890009,985.05345 z M 83.373608,985.05345 C 83.134191,985.11374 82.88525,985.15632 82.635114,985.18044 82.885711,985.15661 83.133608,985.11337 83.373608,985.05345 z"
       id="path6923"
       inkscape:export-filename="/Users/jackheaton/Desktop/logo_white.png"
       inkscape:export-xdpi="300"
       inkscape:export-ydpi="300"
       inkscape:connector-curvature="0" />
    <path
       style="color:#000000;fill:#fff6d5;fill-opacity:1;fill-rule:nonzero;stroke:none;stroke-width:1;marker:none;visibility:visible;display:inline;overflow:visible;enable-background:accumulate"
       d="M 31.853044,972.80949 C 19.10019,972.80949 8.7621603,983.14751 8.7621603,995.90037 8.7621603,1005.3354 14.421426,1013.4515 22.530141,1017.0345 19.234154,1013.5748 16.284895,1010.2497 15.526204,1007.7586 14.377081,1003.9857 13.979298,999.62225 19.797241,988.53895 23.988232,991.38641 22.365637,998.54985 26.001535,999.72452 29.739094,995.20492 32.116855,995.79469 34.13438,995.96152 36.151905,996.12835 35.197977,997.32566 35.968856,997.38677 36.739736,997.44787 36.661706,996.17054 38.000892,996.26726 39.340079,996.364 40.634041,999.55069 42.577676,998.81202 42.690973,997.15822 43.796498,996.13135 43.899439,993.11573 45.832701,994.67591 45.447393,995.47525 46.237221,998.50628 47.027065,1001.5372 48.217327,1002.183 48.777265,1007.3541 48.931142,1008.7752 48.963333,1010.1471 48.894859,1011.484 52.652449,1007.377 54.943928,1001.9057 54.943928,995.90037 54.943928,983.14751 44.605898,972.80949 31.853044,972.80949 z M 30.63006,983.14841 C 32.184395,983.15959 33.924691,983.84131 35.512589,985.51441 32.617872,984.82997 29.953211,983.36179 26.105018,986.40343 26.489362,984.54762 28.358339,983.13207 30.63006,983.14841 z M 40.93135,984.73829 C 42.627418,984.7953 44.691889,986.15848 44.14874,987.01022 41.254023,986.32577 41.457933,985.28473 38.993391,985.9848 39.252492,985.03844 40.042934,984.70842 40.93135,984.73829 z M 35.357364,999.62575 C 35.879447,1001.5826 34.876909,1001.8754 30.884065,1002.7773 34.815872,1002.4173 35.898857,1001.0052 39.830664,1002.3681 37.752179,1001.534 36.119046,1001.2498 35.357364,999.62575 z"
       id="path6733"
       inkscape:export-filename="/Users/jackheaton/Desktop/logo_white.png"
       inkscape:export-xdpi="300"
       inkscape:export-ydpi="300"
       inkscape:connector-curvature="0" />
    <g
       id="text5951-7-7"
       style="font-size:27.99999619px;font-style:normal;font-variant:normal;font-weight:normal;font-stretch:normal;line-height:125%;letter-spacing:0px;word-spacing:0px;fill:#000000;fill-opacity:1;stroke:none;display:inline;font-family:Century Gothic;-inkscape-font-specification:Century Gothic"
       transform="matrix(0.63658709,0,0,0.63658709,-3846.4654,929.20103)" />
    <g
       id="text5951-8-2"
       style="font-size:27.99999619px;font-style:normal;font-variant:normal;font-weight:normal;font-stretch:normal;line-height:125%;letter-spacing:0px;word-spacing:0px;fill:#000000;fill-opacity:1;stroke:none;display:inline;font-family:Century Gothic;-inkscape-font-specification:Century Gothic"
       transform="matrix(0.63658709,0,0,0.63658709,-3846.4654,929.20103)" />
    <g
       style="display:inline"
       id="g6803"
       transform="matrix(0.63658709,0,0,0.63658709,-3846.4654,929.20103)">
      <g
         style="font-size:27.99999619px;font-style:normal;font-variant:normal;font-weight:normal;font-stretch:normal;line-height:125%;letter-spacing:0px;word-spacing:0px;fill:#000000;fill-opacity:1;stroke:none;display:inline;font-family:Century Gothic;-inkscape-font-specification:Century Gothic"
         id="text5951-8" />
    </g>
  </g>
</svg>
